<svg version="1.1"
     xmlns="http://www.w3.org/2000/svg">

    <symbol id="business-contact" viewBox="0 0 100 100">
        <path d="M79,57.8c3.6,1.9,6.4,4.4,8.4,7.5c2,3.1,3.1,6.4,3.1,10v6.5c0,2-0.8,3.8-2.5,5.2c-1.7,1.4-3.7,2.2-6.1,2.2H18.2
		c-2.4,0-4.5-0.7-6.1-2.2c-1.7-1.4-2.5-3.2-2.5-5.2v-6.5c0-3.6,1-6.9,3.1-10c2-3.1,4.9-5.6,8.4-7.5c3.6-1.9,7.4-2.9,11.7-3l8.7,29.4
		l5.8-20.9l-5.8-8.6h17.4l-5.8,8.6l5.8,20.9l8.7-29.4C71.6,54.9,75.5,55.9,79,57.8z M38.3,47.1C34.8,45.4,32,43,29.9,40
		c-2.1-3-3.1-6.3-3.1-9.9c0-3.6,1-6.9,3.1-9.9c2-3,4.9-5.4,8.4-7.1c3.6-1.7,7.4-2.6,11.7-2.6c4.2,0,8.1,0.9,11.7,2.6
		c3.6,1.7,6.4,4.1,8.4,7.1c2,3,3.1,6.3,3.1,9.9c0,3.6-1,6.9-3.1,9.9c-2.1,3-4.9,5.4-8.4,7.1c-3.6,1.7-7.4,2.6-11.7,2.6
		C45.8,49.7,41.9,48.9,38.3,47.1z"/>
    </symbol>
</svg>